HIERARCHY
ROOT Hips
{
	OFFSET 0.000000 8.830580 0.000000
	CHANNELS 6 Xposition Yposition Zposition Zrotation Yrotation Xrotation 
	JOINT Spine
	{
		OFFSET 0.000000 0.010000 0.000000
		CHANNELS 3 Zrotation Yrotation Xrotation
		JOINT Spine1
		{
			OFFSET 0.000000 2.459130 0.000000
			CHANNELS 3 Zrotation Yrotation Xrotation
			JOINT Neck
			{
				OFFSET 0.000000 2.484630 0.000000
				CHANNELS 3 Zrotation Yrotation Xrotation
				JOINT Head_virtual
				{
					OFFSET 0.000000 0.000000 0.000000
					CHANNELS 3 Zrotation Yrotation Xrotation
					JOINT Head
					{
						OFFSET 0.000000 0.927525 0.000000
						CHANNELS 3 Zrotation Yrotation Xrotation
						End Site
						{
							OFFSET 0.000000 0.000000 0.000000
						}
					}
				}
				JOINT LeftUpArm_virtual
				{
					OFFSET 0.000000 0.000000 0.000000
					CHANNELS 3 Zrotation Yrotation Xrotation
					JOINT LeftUpArm
					{
						OFFSET 1.248820 0.000000 0.000000
						CHANNELS 3 Zrotation Yrotation Xrotation
						JOINT LeftForeArm
						{
							OFFSET 2.597580 0.000000 0.000000
							CHANNELS 3 Zrotation Yrotation Xrotation
							JOINT LeftHand
							{
								OFFSET 2.455420 0.000000 0.000000
								CHANNELS 3 Zrotation Yrotation Xrotation
								End Site
								{
									OFFSET 0.000000 0.000000 0.000000
								}
							}
						}
					}
				}
				JOINT RightUpArm_virtual
				{
					OFFSET -0.000000 -0.000000 -0.000000
					CHANNELS 3 Zrotation Yrotation Xrotation
					JOINT RightUpArm
					{
						OFFSET -1.248820 -0.000000 -0.000000
						CHANNELS 3 Zrotation Yrotation Xrotation
						JOINT RightForeArm
						{
							OFFSET -2.597580 -0.000000 -0.000000
							CHANNELS 3 Zrotation Yrotation Xrotation
							JOINT RightHand
							{
								OFFSET -2.455420 -0.000000 -0.000000
								CHANNELS 3 Zrotation Yrotation Xrotation
								End Site
								{
									OFFSET 0.000000 0.000000 0.000000
								}
							}
						}
					}
				}
			}
		}
	}
	JOINT LeftUpLeg
	{
		OFFSET 1.271939 0.000000 0.000000
		CHANNELS 3 Zrotation Yrotation Xrotation
		JOINT LeftLowLeg
		{
			OFFSET 0.000000 -4.342910 0.000000
			CHANNELS 3 Zrotation Yrotation Xrotation
			JOINT LeftFoot
			{
				OFFSET 0.000000 -4.487670 0.000000
				CHANNELS 3 Zrotation Yrotation Xrotation
				JOINT LeftToeBase
				{
					OFFSET 0.000000 0.000000 1.515070
					CHANNELS 3 Zrotation Yrotation Xrotation
					End Site
					{
						OFFSET 0.000000 0.000000 0.000000
					}
				}
			}
		}
	}
	JOINT RightUpLeg
	{
		OFFSET -1.271939 0.000000 0.000000
		CHANNELS 3 Zrotation Yrotation Xrotation
		JOINT RightLowLeg
		{
			OFFSET 0.000000 -4.342910 0.000000
			CHANNELS 3 Zrotation Yrotation Xrotation
			JOINT RightFoot
			{
				OFFSET 0.000000 -4.487670 0.000000
				CHANNELS 3 Zrotation Yrotation Xrotation
				JOINT RightToeBase
				{
					OFFSET 0.000000 0.000000 1.515070
					CHANNELS 3 Zrotation Yrotation Xrotation
					End Site
					{
						OFFSET 0.000000 0.000000 0.000000
					}
				}
			}
		}
	}
}
MOTION
Frames: 7
Frame Time: 0.041667
-20.917974 9.220544 34.371915 -170.146046 -52.509629 -175.200495 3.993554 0.167531 -2.326330 11.176981 0.718184 14.204340 0.000000 0.000000 0.000000 4.015071 -13.206494 -23.197321 19.952957 -15.875527 -55.000277 -17.673000 2.330980 3.181570 -50.361401 -21.830999 50.187801 180.000000 -84.217201 -180.000000 25.832300 17.632099 2.634190 19.793501 3.169070 10.526600 30.230200 34.819302 -30.291700 0.000000 36.924999 0.000000 -1.336000 -23.757099 -68.160103 -1.126933 7.240495 -27.917516 0.000000 0.000000 26.080299 -2.298902 -13.979392 5.989853 0.000000 0.000000 -43.810400 10.328671 -17.200293 -24.957541 0.000000 0.000000 41.195400 12.286686 8.757599 7.366036 0.000000 0.000000 -32.716900 
-20.905881 9.203248 34.458917 -171.004785 -52.002328 -174.807356 4.264183 0.469673 -2.381950 11.007149 0.921879 14.770356 0.000000 0.000000 0.000000 4.143755 -13.395779 -23.822450 19.466256 -15.947647 -55.092465 -17.736099 2.219630 3.455430 -50.100800 -21.842800 49.762001 -180.000000 -84.320198 180.000000 26.014500 17.635599 2.384750 19.627399 3.462800 10.226100 29.485701 34.926800 -30.426399 0.000000 37.221901 0.000000 -1.798820 -23.808100 -67.820602 -2.332749 8.368080 -27.839882 0.000000 0.000000 25.843100 -2.102179 -14.325647 6.164286 0.000000 0.000000 -44.199699 10.315867 -18.799701 -23.624127 0.000000 0.000000 40.266102 7.728485 8.703121 7.521831 0.000000 0.000000 -35.362200 
-20.892061 9.183637 34.549664 -171.530886 -51.351709 -174.799375 4.751427 0.771689 -2.239933 11.010826 1.125307 15.266816 0.000000 0.000000 0.000000 3.880286 -13.507093 -24.232395 18.791090 -15.995904 -55.052204 -17.798500 2.151270 3.636520 -49.994900 -21.832199 49.329399 180.000000 -84.592903 -180.000000 25.915600 17.581400 2.204980 19.319300 3.695770 10.025200 28.746401 35.291500 -30.464199 0.000000 37.466599 0.000000 -2.929110 -23.683300 -68.184303 -3.125362 9.075089 -28.053630 0.000000 0.000000 26.381100 -1.953343 -14.409827 6.232337 0.000000 0.000000 -44.469000 10.028700 -19.564126 -21.764883 0.000000 0.000000 37.508202 5.698982 8.457798 5.270135 0.000000 0.000000 -34.473200 
-20.872598 9.165541 34.644005 -171.322864 -50.454282 -175.393610 5.626310 1.131917 -1.915304 11.269310 1.384912 15.691301 0.000000 0.000000 0.000000 3.771610 -13.734771 -24.482591 18.059795 -15.976885 -55.238349 -17.929199 2.102720 3.656280 -49.985199 -21.746500 48.841702 -180.000000 -84.921799 180.000000 25.769300 17.249701 2.776380 18.906900 3.822860 9.890080 28.188101 36.147598 -31.115499 0.000000 37.481400 0.000000 -2.186870 -23.885500 -68.825401 -3.408955 9.930403 -28.736424 0.000000 0.000000 27.837000 -2.098188 -14.504179 6.039876 0.000000 0.000000 -44.576500 9.796133 -18.914096 -19.869051 0.000000 0.000000 34.101299 5.690943 8.224193 3.495391 0.000000 0.000000 -32.104300 
-20.850193 9.146629 34.745492 -170.797912 -49.281735 -175.963004 6.721874 1.504460 -1.683991 11.627596 1.660056 16.084834 0.000000 0.000000 0.000000 3.610098 -13.962159 -24.640931 17.196318 -15.751021 -55.829667 -18.048500 2.087170 3.378030 -50.124802 -21.402399 48.341999 180.000000 -85.139999 -180.000000 25.878099 16.876101 3.968600 18.508600 3.949440 9.840730 27.466499 37.261101 -31.631300 0.000000 37.609501 0.000000 -2.818970 -23.825899 -69.555199 -3.522548 10.947618 -29.993655 0.000000 0.000000 29.821400 -2.387672 -14.591876 5.717721 0.000000 0.000000 -44.566299 9.753915 -17.180957 -19.162317 0.000000 0.000000 32.270000 6.073968 7.673282 2.902411 0.000000 0.000000 -31.444799 
-20.834730 9.125001 34.849164 -170.398281 -47.908563 -176.427894 7.622442 1.717003 -1.523454 12.299271 1.776230 16.646031 0.000000 0.000000 0.000000 3.092784 -13.944394 -24.567462 16.661252 -15.408725 -56.461790 -18.263800 2.157880 3.082400 -50.328999 -20.948999 47.618698 180.000000 -85.257698 -180.000000 26.093100 16.572901 4.128510 17.923401 4.303690 9.668090 26.798201 38.476299 -31.860701 0.000000 37.528801 0.000000 -3.146210 -24.800200 -68.200996 -3.640982 12.007030 -31.203353 0.000000 0.000000 31.810301 -3.393673 -14.950509 5.506632 0.000000 0.000000 -44.515499 9.542176 -14.399749 -19.116730 0.000000 0.000000 31.760200 6.279422 6.184785 2.363464 0.000000 0.000000 -30.724900 
-20.827797 9.098993 34.955573 -170.555092 -46.509363 -176.224556 8.223038 1.772381 -1.655322 12.801953 1.736732 17.255474 0.000000 0.000000 0.000000 2.877108 -13.748797 -24.560102 15.976450 -14.878930 -56.965795 -18.290100 2.323540 2.788810 -50.720001 -20.456200 46.766399 -180.000000 -85.317497 180.000000 26.251200 16.767401 3.169550 17.514099 4.712360 9.390900 26.084900 39.793598 -31.708500 0.000000 37.441299 0.000000 -4.447240 -24.862200 -68.750000 -4.066674 12.882549 -32.417698 0.000000 0.000000 33.424599 -5.707555 -15.664994 5.335729 0.000000 0.000000 -43.835100 8.993252 -11.989959 -19.573227 0.000000 0.000000 31.670799 6.863075 5.337720 1.675668 0.000000 0.000000 -30.068000 
